<?xml version="1.0" encoding="UTF-8" standalone="no"?><svg xmlns="http://www.w3.org/2000/svg" xmlns:xlink="http://www.w3.org/1999/xlink" contentStyleType="text/css" height="386px" preserveAspectRatio="none" style="width:582px;height:386px;background:#FFFFFF;" version="1.1" viewBox="0 0 582 386" width="582px" zoomAndPan="magnify"><defs/><g><ellipse cx="295.5" cy="20" fill="#222222" rx="10" ry="10" style="stroke:#222222;stroke-width:1.0;"/><rect fill="#F1F1F1" height="33.9688" rx="12.5" ry="12.5" style="stroke:#181818;stroke-width:0.5;" width="52" x="269.5" y="50"/><text fill="#000000" font-family="sans-serif" font-size="12" lengthAdjust="spacing" textLength="32" x="279.5" y="71.1387">Inicio</text><rect fill="#F1F1F1" height="33.9688" rx="12.5" ry="12.5" style="stroke:#181818;stroke-width:0.5;" width="117" x="237" y="103.9688"/><text fill="#000000" font-family="sans-serif" font-size="12" lengthAdjust="spacing" textLength="97" x="247" y="125.1074">Login / Registro</text><polygon fill="#F1F1F1" points="233.5,157.9375,357.5,157.9375,369.5,169.9375,357.5,181.9375,233.5,181.9375,221.5,169.9375,233.5,157.9375" style="stroke:#181818;stroke-width:0.5;"/><text fill="#000000" font-family="sans-serif" font-size="11" lengthAdjust="spacing" textLength="124" x="233.5" y="173.7456">¿Es Admin o Usuario?</text><text fill="#000000" font-family="sans-serif" font-size="11" lengthAdjust="spacing" textLength="44" x="177.5" y="167.3433">Usuario</text><text fill="#000000" font-family="sans-serif" font-size="11" lengthAdjust="spacing" textLength="35" x="369.5" y="167.3433">Admin</text><rect fill="#F1F1F1" height="33.9688" rx="12.5" ry="12.5" style="stroke:#181818;stroke-width:0.5;" width="279" x="11" y="191.9375"/><text fill="#000000" font-family="sans-serif" font-size="12" lengthAdjust="spacing" textLength="259" x="21" y="213.0762">Ver todas las solicitudes y solicitar becas</text><rect fill="#F1F1F1" height="33.9688" rx="12.5" ry="12.5" style="stroke:#181818;stroke-width:0.5;" width="180" x="60.5" y="245.9063"/><text fill="#000000" font-family="sans-serif" font-size="12" lengthAdjust="spacing" textLength="160" x="70.5" y="267.0449">Ver solicitudes asociadas</text><ellipse cx="150.5" cy="310.875" fill="none" rx="11" ry="11" style="stroke:#222222;stroke-width:1.0;"/><ellipse cx="150.5" cy="310.875" fill="#222222" rx="6" ry="6" style="stroke:#111111;stroke-width:1.0;"/><rect fill="#F1F1F1" height="33.9688" rx="12.5" ry="12.5" style="stroke:#181818;stroke-width:0.5;" width="261" x="310" y="191.9375"/><text fill="#000000" font-family="sans-serif" font-size="12" lengthAdjust="spacing" textLength="241" x="320" y="213.0762">Crear nuevas solicitudes (Descripción)</text><rect fill="#F1F1F1" height="33.9688" rx="12.5" ry="12.5" style="stroke:#181818;stroke-width:0.5;" width="190" x="345.5" y="245.9063"/><text fill="#000000" font-family="sans-serif" font-size="12" lengthAdjust="spacing" textLength="170" x="355.5" y="267.0449">Actualizar estado de becas</text><rect fill="#F1F1F1" height="33.9688" rx="12.5" ry="12.5" style="stroke:#181818;stroke-width:0.5;" width="140" x="370.5" y="299.875"/><text fill="#000000" font-family="sans-serif" font-size="12" lengthAdjust="spacing" textLength="120" x="380.5" y="321.0137">Eliminar solicitudes</text><ellipse cx="440.5" cy="364.8438" fill="none" rx="11" ry="11" style="stroke:#222222;stroke-width:1.0;"/><ellipse cx="440.5" cy="364.8438" fill="#222222" rx="6" ry="6" style="stroke:#111111;stroke-width:1.0;"/><line style="stroke:#181818;stroke-width:1.0;" x1="295.5" x2="295.5" y1="30" y2="50"/><polygon fill="#181818" points="291.5,40,295.5,50,299.5,40,295.5,44" style="stroke:#181818;stroke-width:1.0;"/><line style="stroke:#181818;stroke-width:1.0;" x1="295.5" x2="295.5" y1="83.9688" y2="103.9688"/><polygon fill="#181818" points="291.5,93.9688,295.5,103.9688,299.5,93.9688,295.5,97.9688" style="stroke:#181818;stroke-width:1.0;"/><line style="stroke:#181818;stroke-width:1.0;" x1="150.5" x2="150.5" y1="225.9063" y2="245.9063"/><polygon fill="#181818" points="146.5,235.9063,150.5,245.9063,154.5,235.9063,150.5,239.9063" style="stroke:#181818;stroke-width:1.0;"/><line style="stroke:#181818;stroke-width:1.0;" x1="150.5" x2="150.5" y1="279.875" y2="299.875"/><polygon fill="#181818" points="146.5,289.875,150.5,299.875,154.5,289.875,150.5,293.875" style="stroke:#181818;stroke-width:1.0;"/><line style="stroke:#181818;stroke-width:1.0;" x1="440.5" x2="440.5" y1="225.9063" y2="245.9063"/><polygon fill="#181818" points="436.5,235.9063,440.5,245.9063,444.5,235.9063,440.5,239.9063" style="stroke:#181818;stroke-width:1.0;"/><line style="stroke:#181818;stroke-width:1.0;" x1="440.5" x2="440.5" y1="279.875" y2="299.875"/><polygon fill="#181818" points="436.5,289.875,440.5,299.875,444.5,289.875,440.5,293.875" style="stroke:#181818;stroke-width:1.0;"/><line style="stroke:#181818;stroke-width:1.0;" x1="440.5" x2="440.5" y1="333.8438" y2="353.8438"/><polygon fill="#181818" points="436.5,343.8438,440.5,353.8438,444.5,343.8438,440.5,347.8438" style="stroke:#181818;stroke-width:1.0;"/><line style="stroke:#181818;stroke-width:1.0;" x1="221.5" x2="150.5" y1="169.9375" y2="169.9375"/><line style="stroke:#181818;stroke-width:1.0;" x1="150.5" x2="150.5" y1="169.9375" y2="191.9375"/><polygon fill="#181818" points="146.5,181.9375,150.5,191.9375,154.5,181.9375,150.5,185.9375" style="stroke:#181818;stroke-width:1.0;"/><line style="stroke:#181818;stroke-width:1.0;" x1="369.5" x2="440.5" y1="169.9375" y2="169.9375"/><line style="stroke:#181818;stroke-width:1.0;" x1="440.5" x2="440.5" y1="169.9375" y2="191.9375"/><polygon fill="#181818" points="436.5,181.9375,440.5,191.9375,444.5,181.9375,440.5,185.9375" style="stroke:#181818;stroke-width:1.0;"/><line style="stroke:#181818;stroke-width:1.0;" x1="295.5" x2="295.5" y1="137.9375" y2="157.9375"/><polygon fill="#181818" points="291.5,147.9375,295.5,157.9375,299.5,147.9375,295.5,151.9375" style="stroke:#181818;stroke-width:1.0;"/><!--MD5=[489206362a50c82d9c27b605477badbe]
@startuml
start
:Inicio;

:Login / Registro;

if (¿Es Admin o Usuario?) then (Usuario)
    :Ver todas las solicitudes y solicitar becas;
    :Ver solicitudes asociadas;
    stop
else (Admin)
    :Crear nuevas solicitudes (Descripción);
    :Actualizar estado de becas;
    :Eliminar solicitudes;
    stop
endif
@enduml

PlantUML version 1.2022.7(Mon Aug 22 17:01:30 UTC 2022)
(GPL source distribution)
Java Runtime: OpenJDK Runtime Environment
JVM: OpenJDK 64-Bit Server VM
Default Encoding: UTF-8
Language: en
Country: null
--></g></svg>